<svg width="312" height="270" viewBox="0 0 312 270" fill="none" xmlns="http://www.w3.org/2000/svg">
<path d="M2.72664 117.336V110.696C6.84689 109.847 9.93708 108.937 11.9972 107.967C14.1179 106.936 15.1783 105.996 15.1783 105.148V15.0081C15.1783 14.2804 14.1785 13.3708 12.179 12.2793C10.24 11.1878 7.08926 10.2176 2.72664 9.36868V2.72874H83.7078L87.1615 5.6394C87.1009 7.21601 86.9494 9.18677 86.7071 11.5517C86.4647 13.9166 86.1617 16.3421 85.7982 18.8283C85.4952 21.3145 85.1317 23.6794 84.7075 25.9231C84.344 28.106 83.9804 29.7736 83.6169 30.9258H76.6185C76.4367 25.2863 75.7096 21.0113 74.4372 18.1007C73.2254 15.1294 71.4682 13.6437 69.1657 13.6437H37.9003V50.4817H71.2561L74.5281 53.6653C73.9828 54.6961 73.3465 55.7876 72.6194 56.9398C71.8923 58.0919 71.1349 59.1834 70.3472 60.2143C69.5595 61.2451 68.7719 62.2153 67.9842 63.1249C67.2571 63.9739 66.5905 64.6409 65.9846 65.126C65.0757 64.2164 64.1063 63.4584 63.0762 62.852C62.0462 62.2457 60.8343 61.7302 59.4407 61.3058C58.1077 60.8813 56.502 60.5781 54.6236 60.3962C52.8059 60.2143 50.6246 60.1233 48.0797 60.1233H37.9003V105.148C37.9003 105.511 38.1426 105.906 38.6274 106.33C39.1121 106.754 39.9301 107.209 41.0813 107.694C42.2326 108.119 43.7777 108.604 45.7166 109.15C47.7162 109.635 50.2004 110.15 53.1694 110.696V117.336H2.72664Z" fill="#FF6A71"/>
<path d="M190.628 83.0447C190.628 85.7735 190.204 88.5629 189.356 91.4129C188.568 94.2629 187.356 97.0826 185.72 99.872C184.084 102.601 182.024 105.208 179.54 107.694C177.056 110.12 174.117 112.242 170.724 114.061C167.391 115.881 163.604 117.336 159.363 118.427C155.182 119.519 150.516 120.065 145.366 120.065C143.185 120.065 140.67 119.852 137.822 119.428C135.035 119.004 132.157 118.397 129.188 117.609C126.28 116.881 123.402 115.972 120.554 114.88C117.766 113.789 115.313 112.545 113.192 111.151C112.889 111.03 112.646 110.453 112.465 109.423C112.283 108.331 112.131 106.997 112.01 105.42C111.95 103.783 111.919 101.964 111.919 99.9629C111.98 97.9012 112.071 95.8395 112.192 93.7778C112.374 91.7161 112.586 89.6847 112.828 87.6836C113.131 85.6825 113.495 83.924 113.919 82.408L120.372 82.8628C121.766 86.4405 123.462 89.715 125.462 92.6863C127.461 95.6576 129.703 98.2044 132.187 100.327C134.672 102.449 137.338 104.117 140.186 105.329C143.033 106.482 146.002 107.058 149.093 107.058C151.819 107.058 154.455 106.664 157 105.875C159.545 105.087 161.787 103.965 163.725 102.51C165.664 100.994 167.21 99.1443 168.361 96.9613C169.573 94.7177 170.179 92.1405 170.179 89.2299C170.179 85.5309 169.361 82.3474 167.725 79.6793C166.089 76.9505 163.907 74.5553 161.181 72.4936C158.515 70.3712 155.455 68.4611 152.001 66.7632C148.608 65.0654 145.093 63.3978 141.458 61.7605C137.883 60.0627 134.369 58.3041 130.915 56.485C127.522 54.6052 124.462 52.4525 121.735 50.027C119.069 47.5408 116.918 44.6907 115.282 41.4769C113.646 38.263 112.828 34.4428 112.828 30.0162C112.828 27.1661 113.616 24.0129 115.191 20.5565C116.827 17.0395 119.312 13.765 122.644 10.7331C126.037 7.70112 130.37 5.15429 135.641 3.09258C140.913 1.03086 147.214 0 154.546 0C157.818 0 161.029 0.212236 164.18 0.636707C167.331 1.06118 170.269 1.63725 172.996 2.36491C175.723 3.09258 178.116 3.97184 180.176 5.0027C182.297 6.03355 183.903 7.15537 184.993 8.36814C185.296 8.6107 185.357 9.15645 185.175 10.0054C185.054 10.8543 184.781 11.8549 184.357 13.007C183.993 14.1591 183.478 15.4022 182.812 16.7363C182.206 18.0703 181.57 19.3438 180.903 20.5565C180.237 21.7693 179.57 22.8608 178.904 23.831C178.237 24.8012 177.662 25.4986 177.177 25.9231L171.178 25.3773C169.845 22.5273 168.3 20.1624 166.543 18.2826C164.846 16.3421 163.029 14.7958 161.09 13.6437C159.211 12.4916 157.303 11.673 155.364 11.1878C153.425 10.7027 151.607 10.4602 149.911 10.4602C146.881 10.4602 144.275 10.8543 142.094 11.6426C139.973 12.4309 138.216 13.4921 136.823 14.8262C135.429 16.1602 134.399 17.6762 133.732 19.3741C133.127 21.0113 132.824 22.6789 132.824 24.3768C132.824 27.2268 133.642 29.7736 135.278 32.0172C136.974 34.2002 139.155 36.262 141.822 38.2024C144.548 40.0822 147.638 41.871 151.092 43.5689C154.546 45.2668 158.09 47.0253 161.726 48.8445C165.361 50.6637 168.906 52.6344 172.36 54.7568C175.814 56.8791 178.873 59.2744 181.54 61.9425C184.266 64.6106 186.447 67.6728 188.083 71.1292C189.78 74.5856 190.628 78.5575 190.628 83.0447Z" fill="#FF6A71"/>
<path d="M234.654 117.336V110.696C237.442 110.15 239.744 109.574 241.562 108.968C243.38 108.361 244.834 107.785 245.924 107.24C247.015 106.633 247.773 106.087 248.197 105.602C248.621 105.057 248.833 104.571 248.833 104.147V13.6437H225.747C224.839 13.6437 223.96 13.9772 223.112 14.6443C222.324 15.2506 221.506 16.3118 220.658 17.8278C219.809 19.3438 218.87 21.3145 217.84 23.7401C216.81 26.1656 215.629 29.1369 214.296 32.654L207.661 30.1981C207.782 28.4396 207.964 26.3172 208.206 23.831C208.509 21.3448 208.842 18.798 209.206 16.1905C209.569 13.5831 209.933 11.0969 210.296 8.73198C210.66 6.30643 210.993 4.30535 211.296 2.72874H308.546L312 5.6394C311.939 7.21601 311.788 9.09581 311.546 11.2788C311.364 13.4618 311.091 15.7661 310.728 18.1916C310.425 20.6172 310.061 23.0427 309.637 25.4683C309.273 27.8332 308.91 29.9555 308.546 31.8353H301.73C301.124 29.0459 300.609 26.5294 300.185 24.2858C299.821 21.9815 299.397 20.0714 298.912 18.5555C298.427 16.9788 297.791 15.7661 297.004 14.9171C296.276 14.0682 295.277 13.6437 294.004 13.6437H271.555V104.147C271.555 104.511 271.767 104.966 272.191 105.511C272.615 105.996 273.373 106.542 274.463 107.149C275.554 107.755 277.008 108.361 278.826 108.968C280.704 109.574 283.037 110.15 285.824 110.696V117.336H234.654Z" fill="#FF6A71"/>
<path d="M119.518 158.394C115.397 159.183 112.156 159.971 109.793 160.759C107.49 161.487 106.036 162.7 105.43 164.398L71.2561 258.903C70.7714 260.237 69.8322 261.45 68.4386 262.541C67.1056 263.633 65.5605 264.633 63.8033 265.543C62.1067 266.392 60.3193 267.089 58.4409 267.635C56.6232 268.241 54.9872 268.727 53.533 269.09L12.179 164.398C11.5125 162.821 10.2703 161.548 8.45258 160.577C6.63482 159.607 3.81729 158.88 0 158.394V151.754H46.3528V158.394C41.5055 158.758 38.2941 159.395 36.7187 160.305C35.1433 161.153 34.6889 162.457 35.3554 164.216L64.894 240.348L91.8877 164.398C92.1906 163.488 92.2209 162.73 91.9786 162.124C91.7968 161.517 91.2515 161.002 90.3426 160.577C89.4337 160.092 88.1613 159.698 86.5253 159.395C84.8893 159.031 82.8292 158.698 80.3449 158.394V151.754H119.518V158.394Z" fill="#FF6A71"/>
<path d="M224.529 238.71C224.287 241.318 223.984 244.077 223.621 246.988C223.318 249.838 222.984 252.566 222.621 255.174C222.318 257.721 221.985 259.995 221.621 261.996C221.318 263.997 221.045 265.452 220.803 266.362H135.823V259.722C139.943 258.873 143.033 257.963 145.093 256.993C147.214 255.962 148.275 255.022 148.275 254.173V164.034C148.275 163.306 147.275 162.397 145.275 161.305C143.336 160.214 140.186 159.243 135.823 158.394V151.754H183.539V158.394C179.419 159.243 176.298 160.183 174.178 161.214C172.057 162.245 170.997 163.185 170.997 164.034V248.716C170.997 249.807 171.239 250.778 171.724 251.626C172.269 252.415 173.178 253.112 174.45 253.719C175.723 254.264 177.45 254.689 179.631 254.992C181.812 255.295 184.569 255.447 187.902 255.447H198.172C200.959 255.447 203.292 255.113 205.17 254.446C207.109 253.779 208.806 252.718 210.26 251.263C211.714 249.747 213.017 247.776 214.168 245.35C215.38 242.925 216.622 239.923 217.895 236.346L224.529 238.71Z" fill="#FF6A71"/>
<path d="M277.826 254.446C277.826 256.872 277.372 259.055 276.463 260.995C275.615 262.936 274.433 264.573 272.918 265.907C271.464 267.241 269.707 268.241 267.647 268.909C265.647 269.636 263.496 270 261.194 270C259.436 270 257.74 269.757 256.104 269.272C254.529 268.848 253.135 268.12 251.923 267.089C250.711 266.119 249.742 264.876 249.015 263.36C248.348 261.783 248.015 259.904 248.015 257.721C248.015 255.356 248.469 253.203 249.378 251.263C250.287 249.322 251.499 247.685 253.014 246.351C254.589 245.017 256.377 243.986 258.376 243.258C260.436 242.531 262.557 242.167 264.738 242.167C266.435 242.167 268.071 242.409 269.646 242.894C271.222 243.38 272.615 244.138 273.827 245.168C275.039 246.139 276.008 247.412 276.736 248.989C277.463 250.505 277.826 252.324 277.826 254.446Z" fill="#FF6A71"/>
</svg>
