<svg width="16" height="14" viewBox="0 0 16 14" fill="none" xmlns="http://www.w3.org/2000/svg">
<path d="M8.77778 10V10.75C8.77778 11.3467 8.53195 11.919 8.09436 12.341C7.65678 12.7629 7.06328 13 6.44444 13H3.33333C2.7145 13 2.121 12.7629 1.68342 12.341C1.24583 11.919 1 11.3467 1 10.75V3.25C1 2.65326 1.24583 2.08097 1.68342 1.65901C2.121 1.23705 2.7145 1 3.33333 1H6.44444C7.06328 1 7.65678 1.23705 8.09436 1.65901C8.53195 2.08097 8.77778 2.65326 8.77778 3.25V4M11.8889 10L15 7L11.8889 10ZM15 7L11.8889 4L15 7ZM15 7H4.11111H15Z" stroke="#FFF8F8" stroke-width="1.5" stroke-linecap="round" stroke-linejoin="round"/>
</svg>
