<svg width="80" height="69" viewBox="0 0 80 69" fill="none" xmlns="http://www.w3.org/2000/svg">
<path d="M0.699138 29.9858V28.289C1.75561 28.072 2.54797 27.8396 3.07621 27.5916C3.61998 27.3282 3.89187 27.088 3.89187 26.871V3.8354C3.89187 3.64944 3.63552 3.41699 3.12282 3.13805C2.62565 2.85912 1.81776 2.61117 0.699138 2.39422V0.697345H21.4635L22.3491 1.44118C22.3336 1.84409 22.2947 2.34773 22.2326 2.9521C22.1704 3.55646 22.0928 4.17632 21.9995 4.81168C21.9219 5.44704 21.8286 6.05141 21.7199 6.62478C21.6267 7.18266 21.5334 7.60881 21.4402 7.90325H19.6458C19.5992 6.46207 19.4127 5.36956 19.0865 4.62572C18.7757 3.86639 18.3252 3.48673 17.7348 3.48673H9.71801V12.9009H18.2708L19.1098 13.7145C18.9699 13.9779 18.8068 14.2568 18.6204 14.5513C18.4339 14.8457 18.2397 15.1246 18.0378 15.3881C17.8358 15.6515 17.6338 15.8995 17.4318 16.1319C17.2454 16.3489 17.0745 16.5193 16.9191 16.6433C16.6861 16.4109 16.4375 16.2172 16.1734 16.0622C15.9093 15.9072 15.5985 15.7755 15.2412 15.667C14.8994 15.5585 14.4877 15.4811 14.0061 15.4346C13.54 15.3881 12.9807 15.3648 12.3281 15.3648H9.71801V26.871C9.71801 26.964 9.78016 27.0647 9.90445 27.1732C10.0287 27.2817 10.2385 27.3979 10.5337 27.5219C10.8289 27.6304 11.225 27.7543 11.7222 27.8938C12.2349 28.0178 12.8719 28.1495 13.6332 28.289V29.9858H0.699138Z" fill="#FFF8F8"/>
<path d="M48.8791 21.2225C48.8791 21.9199 48.7703 22.6327 48.5528 23.3611C48.3508 24.0894 48.0401 24.81 47.6206 25.5228C47.2011 26.2202 46.6729 26.8865 46.0359 27.5219C45.3989 28.1418 44.6454 28.6841 43.7753 29.149C42.9208 29.6139 41.9498 29.9858 40.8623 30.2648C39.7903 30.5437 38.594 30.6832 37.2734 30.6832C36.7141 30.6832 36.0693 30.629 35.3391 30.5205C34.6244 30.412 33.8864 30.257 33.1251 30.0556C32.3794 29.8696 31.6414 29.6372 30.9112 29.3582C30.1965 29.0793 29.5673 28.7616 29.0235 28.4052C28.9459 28.3742 28.8837 28.227 28.8371 27.9635C28.7905 27.6846 28.7517 27.3437 28.7206 26.9408C28.705 26.5224 28.6973 26.0575 28.6973 25.5461C28.7128 25.0192 28.7361 24.4923 28.7672 23.9654C28.8138 23.4386 28.8682 22.9194 28.9303 22.408C29.008 21.8966 29.1012 21.4472 29.21 21.0598L30.8646 21.1761C31.2219 22.0904 31.657 22.9272 32.1697 23.6865C32.6824 24.4458 33.2572 25.0967 33.8942 25.6391C34.5312 26.1814 35.2148 26.6076 35.945 26.9175C36.6752 27.212 37.4365 27.3592 38.2289 27.3592C38.928 27.3592 39.6038 27.2585 40.2564 27.057C40.9089 26.8555 41.4837 26.5689 41.9809 26.1969C42.4781 25.8095 42.8742 25.3369 43.1694 24.779C43.4802 24.2056 43.6355 23.547 43.6355 22.8032C43.6355 21.8579 43.4258 21.0443 43.0063 20.3625C42.5868 19.6651 42.0275 19.053 41.3284 18.5261C40.6448 17.9838 39.8602 17.4956 38.9746 17.0617C38.1046 16.6278 37.2034 16.2017 36.2713 15.7832C35.3546 15.3493 34.4535 14.8999 33.5679 14.435C32.6979 13.9547 31.9133 13.4045 31.2142 12.7847C30.5306 12.1493 29.979 11.421 29.5595 10.5996C29.1401 9.77833 28.9303 8.80205 28.9303 7.6708C28.9303 6.94246 29.1323 6.13664 29.5362 5.25333C29.9557 4.35453 30.5927 3.51772 31.4472 2.74289C32.3173 1.96806 33.4281 1.31721 34.7798 0.790325C36.1314 0.263442 37.7472 0 39.6271 0C40.4661 0 41.2895 0.054238 42.0974 0.162714C42.9053 0.27119 43.6588 0.418407 44.358 0.604366C45.0571 0.790325 45.6708 1.01502 46.199 1.27847C46.7428 1.54191 47.1545 1.82859 47.4342 2.13853C47.5118 2.20051 47.5274 2.33998 47.4808 2.55693C47.4497 2.77388 47.3798 3.02958 47.271 3.32401C47.1778 3.61845 47.0458 3.93613 46.8749 4.27705C46.7195 4.61798 46.5564 4.9434 46.3855 5.25333C46.2146 5.56327 46.0437 5.8422 45.8728 6.09015C45.7019 6.33809 45.5543 6.5163 45.43 6.62478L43.8919 6.48531C43.5501 5.75697 43.1539 5.15261 42.7033 4.67221C42.2683 4.17632 41.8022 3.78116 41.3051 3.48673C40.8234 3.19229 40.334 2.98309 39.8369 2.85912C39.3397 2.73514 38.8736 2.67316 38.4386 2.67316C37.6618 2.67316 36.9937 2.77388 36.4344 2.97534C35.8906 3.1768 35.4401 3.44799 35.0827 3.78891C34.7254 4.12983 34.4613 4.51725 34.2904 4.95115C34.135 5.36956 34.0573 5.79571 34.0573 6.22962C34.0573 6.95796 34.2671 7.60881 34.6866 8.18219C35.1216 8.74006 35.6809 9.26694 36.3645 9.76283C37.0636 10.2432 37.856 10.7004 38.7416 11.1343C39.6271 11.5682 40.536 12.0176 41.4682 12.4825C42.4004 12.9474 43.3093 13.451 44.1948 13.9934C45.0804 14.5358 45.865 15.1479 46.5486 15.8297C47.2477 16.5116 47.807 17.2942 48.2265 18.1775C48.6615 19.0608 48.8791 20.0758 48.8791 21.2225Z" fill="#FFF8F8"/>
<path d="M60.1678 29.9858V28.289C60.8825 28.1495 61.4729 28.0023 61.9389 27.8473C62.405 27.6924 62.7779 27.5451 63.0576 27.4057C63.3372 27.2507 63.5314 27.1112 63.6402 26.9873C63.7489 26.8478 63.8033 26.7238 63.8033 26.6153V3.48673H57.8839C57.6509 3.48673 57.4256 3.57196 57.2081 3.74242C57.0061 3.89739 56.7964 4.16858 56.5789 4.55599C56.3614 4.9434 56.1206 5.44704 55.8564 6.0669C55.5923 6.68677 55.2894 7.4461 54.9476 8.3449L53.2463 7.71729C53.2774 7.26789 53.324 6.72551 53.3862 6.09015C53.4638 5.45479 53.5493 4.80393 53.6425 4.13758C53.7357 3.47123 53.8289 2.83587 53.9222 2.23151C54.0154 1.61164 54.1008 1.10026 54.1785 0.697345H79.1144L80 1.44118C79.9845 1.84409 79.9456 2.32448 79.8835 2.88236C79.8369 3.44024 79.767 4.02911 79.6737 4.64897C79.5961 5.26883 79.5028 5.88869 79.3941 6.50856C79.3009 7.11292 79.2076 7.6553 79.1144 8.1357H77.3666C77.2112 7.42285 77.0792 6.77975 76.9704 6.20637C76.8772 5.6175 76.7684 5.12936 76.6441 4.74195C76.5199 4.33904 76.3567 4.02911 76.1547 3.81215C75.9683 3.5952 75.712 3.48673 75.3857 3.48673H69.6295V26.6153C69.6295 26.7083 69.6838 26.8246 69.7926 26.964C69.9014 27.088 70.0956 27.2275 70.3752 27.3824C70.6549 27.5374 71.0277 27.6924 71.4938 27.8473C71.9755 28.0023 72.5736 28.1495 73.2883 28.289V29.9858H60.1678Z" fill="#FFF8F8"/>
<path d="M30.6455 40.4786C29.5891 40.68 28.7579 40.8815 28.1519 41.0829C27.5616 41.2689 27.1887 41.5788 27.0333 42.0127L18.2708 66.1641C18.1465 66.5051 17.9057 66.815 17.5484 67.0939C17.2066 67.3729 16.8104 67.6286 16.3598 67.861C15.9248 68.0779 15.4665 68.2562 14.9849 68.3956C14.5188 68.5506 14.0993 68.6746 13.7264 68.7675L3.12282 42.0127C2.95192 41.6098 2.63342 41.2844 2.16733 41.0364C1.70124 40.7885 0.978793 40.6025 0 40.4786V38.7817H11.8853V40.4786C10.6424 40.5716 9.819 40.7343 9.41506 40.9667C9.01111 41.1837 8.89459 41.5168 9.06549 41.9662L16.6395 61.4222L23.5609 42.0127C23.6386 41.7803 23.6464 41.5866 23.5842 41.4316C23.5376 41.2766 23.3978 41.1449 23.1648 41.0364C22.9317 40.9125 22.6055 40.8118 22.186 40.7343C21.7665 40.6413 21.2383 40.5561 20.6013 40.4786V38.7817H30.6455V40.4786Z" fill="#FFF8F8"/>
<path d="M57.5717 61.0038C57.5095 61.6701 57.4318 62.3752 57.3386 63.1191C57.2609 63.8474 57.1755 64.5447 57.0823 65.2111C57.0046 65.8619 56.9191 66.4431 56.8259 66.9545C56.7482 67.4658 56.6783 67.8378 56.6162 68.0702H34.8264V66.3733C35.8829 66.1564 36.6752 65.9239 37.2034 65.676C37.7472 65.4125 38.0191 65.1723 38.0191 64.9554V41.9198C38.0191 41.7338 37.7628 41.5013 37.2501 41.2224C36.7529 40.9435 35.945 40.6955 34.8264 40.4786V38.7817H47.0613V40.4786C46.0048 40.6955 45.2047 40.9357 44.6609 41.1992C44.1171 41.4626 43.8453 41.7028 43.8453 41.9198V63.5607C43.8453 63.8396 43.9074 64.0876 44.0317 64.3045C44.1715 64.506 44.4046 64.6842 44.7308 64.8392C45.0571 64.9786 45.4999 65.0871 46.0592 65.1646C46.6185 65.2421 47.3254 65.2808 48.1799 65.2808H50.8133C51.528 65.2808 52.1262 65.1956 52.6078 65.0251C53.1049 64.8547 53.54 64.5835 53.9128 64.2116C54.2857 63.8242 54.6197 63.3205 54.9149 62.7006C55.2257 62.0808 55.5442 61.3137 55.8704 60.3994L57.5717 61.0038Z" fill="#FFF8F8"/>
<path d="M71.2375 65.0251C71.2375 65.645 71.121 66.2029 70.8879 66.6988C70.6704 67.1946 70.3674 67.6131 69.979 67.954C69.6062 68.2949 69.1556 68.5506 68.6274 68.7211C68.1147 68.907 67.5631 69 66.9727 69C66.5222 69 66.0872 68.938 65.6677 68.814C65.2637 68.7056 64.9064 68.5196 64.5957 68.2562C64.2849 68.0082 64.0364 67.6905 63.8499 67.3031C63.679 66.9002 63.5936 66.4198 63.5936 65.8619C63.5936 65.2576 63.7101 64.7075 63.9431 64.2116C64.1762 63.7157 64.4869 63.2973 64.8753 62.9563C65.2793 62.6154 65.7376 62.352 66.2503 62.166C66.7785 61.9801 67.3223 61.8871 67.8816 61.8871C68.3166 61.8871 68.7361 61.9491 69.1401 62.073C69.544 62.197 69.9013 62.3907 70.2121 62.6542C70.5228 62.9021 70.7714 63.2275 70.9578 63.6304C71.1443 64.0179 71.2375 64.4827 71.2375 65.0251Z" fill="#FFF8F8"/>
</svg>
